<svg id="レイヤー_1" data-name="レイヤー 1" xmlns="http://www.w3.org/2000/svg" viewBox="0 0 562.03 82.67"><defs><style>.cls-1{fill:#41496b;}.cls-2{fill:#3989c0;}.cls-3{fill:#40486b;}</style></defs><title>lab-banner</title><path class="cls-1" d="M7.42,48.26q0-14.57,11-25A37,37,0,0,1,44.8,12.91,36.12,36.12,0,0,1,70.73,23.38Q81.61,33.85,81.6,48.26A34.69,34.69,0,0,1,70.86,74Q60.11,84.56,44.48,84.56A36.08,36.08,0,0,1,18.24,74,34.61,34.61,0,0,1,7.42,48.26Zm64.41.42a24.84,24.84,0,0,0-8-18.75,27.6,27.6,0,0,0-19.75-7.62A26.35,26.35,0,0,0,25,30.06,25.08,25.08,0,0,0,17,48.68a24.53,24.53,0,0,0,8.15,18.65,28.19,28.19,0,0,0,20,7.62,25.81,25.81,0,0,0,18.77-7.78A25.09,25.09,0,0,0,71.83,48.68Z" transform="translate(-7.42 -1.89)"/><path class="cls-1" d="M93.59,15h9.19V42.34L131.31,15h12.81L111.61,46.24l32.72,36.05h-11.7L102.78,49.47V82.29H93.59Z" transform="translate(-7.42 -1.89)"/><path class="cls-1" d="M178.36,12.43l31.76,69.86H200.5l-7.81-17.21H164.14l-7.72,17.21h-9.55Zm0,21-10.76,24h21.64Z" transform="translate(-7.42 -1.89)"/><path class="cls-1" d="M216.62,15H262L229.9,73.21h31.5v9.08H215L247,24.21H216.62Z" transform="translate(-7.42 -1.89)"/><path class="cls-1" d="M297.75,12.43l31.76,69.86h-9.63l-7.8-17.21H283.53l-7.72,17.21h-9.56Zm0,21L287,57.42H308.6Z" transform="translate(-7.42 -1.89)"/><path class="cls-1" d="M338,15h9.19V42.34L375.68,15h12.81L356,46.24,388.7,82.29H377L347.15,49.47V82.29H338Z" transform="translate(-7.42 -1.89)"/><path class="cls-1" d="M397.47,31h9.08V82.29h-9.08Z" transform="translate(-7.42 -1.89)"/><path class="cls-2" d="M422.65,15h9.09V73.21h21.91v9.08h-31Z" transform="translate(-7.42 -1.89)"/><path class="cls-2" d="M488.05,12.43l31.76,69.86h-9.63l-7.81-17.21H473.83l-7.72,17.21h-9.56Zm0,21-10.76,24H498.9Z" transform="translate(-7.42 -1.89)"/><path class="cls-2" d="M529.58,15h10.66q10.51,0,17.17,4.56t6.65,11.53q0,8.49-9.82,14.19,15.19,5.07,15.2,17.6,0,8.71-7.84,14.05t-21,5.34h-11Zm9.08,8.13V43.06q7.61-.11,11.64-2.91a8.85,8.85,0,0,0,4-7.71,7.94,7.94,0,0,0-3.64-6.83Q547.05,23,540.93,23A20.87,20.87,0,0,0,538.66,23.15Zm0,27.88v23h.74q11.88,0,16.21-3.8t4.33-7.76q0-5.24-4.86-8.34T541.77,51Z" transform="translate(-7.42 -1.89)"/><polygon class="cls-3" points="398.98 8.19 398.98 8.19 398.98 8.19 398.98 8.19"/><path class="cls-3" d="M421.62,9.9l-9.78-8c-.18.7-1.81,2.18-3.23,3.34-2.74,2.16-6.33,4.56-7.16,5.63,0,.59-.15,2-.19,2.49a50.94,50.94,0,0,1-.93,5.32c-.23.93-.72,2.52-1,3.46-.38,1.15-1.07,3-1.55,4.33-.16.44-.33.88-.5,1.35l.42.35L407,16.83a3,3,0,1,1,1,.83L398.66,29l.42.35,1.42-.88c1-.62,2.54-1.56,3.44-2.08s2.18-1.21,3-1.6a48,48,0,0,1,8-2.9,24.59,24.59,0,0,0,2.19-4.12c.61-1.31,1.56-3.33,2.19-4.54C420,11.82,421,10.18,421.62,9.9Z" transform="translate(-7.42 -1.89)"/></svg>