<?xml version="1.0" encoding="utf-8"?>
<!-- Generator: Adobe Illustrator 22.0.1, SVG Export Plug-In . SVG Version: 6.00 Build 0)  -->
<svg version="1.1" id="レイヤー_1" xmlns="http://www.w3.org/2000/svg" xmlns:xlink="http://www.w3.org/1999/xlink" x="0px"
	 y="0px" viewBox="0 0 566.9 566.9" style="enable-background:new 0 0 566.9 566.9;" xml:space="preserve">
<style type="text/css">
	.st0{fill:#41496B;}
	.st1{fill:#3989C0;}
	.st2{fill:#2A8BCC;}
	.st3{fill:#FFFFFF;}
	.st4{fill:#40486B;}
	.st5{fill-rule:evenodd;clip-rule:evenodd;fill:#40486B;}
</style>
<path class="st0" d="M2.4,525.1c0-9.7,3.7-18,11-25c7.3-6.9,16.1-10.4,26.4-10.4c10,0,18.7,3.5,25.9,10.5c7.3,7,10.9,15.3,10.9,24.9
	c0,10.2-3.6,18.8-10.7,25.8c-7.2,7-16,10.5-26.4,10.5c-10.3,0-19-3.5-26.2-10.6C6,543.7,2.4,535.2,2.4,525.1z M66.8,525.5
	c0-7.4-2.7-13.7-8-18.8c-5.4-5.1-11.9-7.6-19.7-7.6c-7.4,0-13.8,2.6-19.1,7.8c-5.3,5.2-7.9,11.4-7.9,18.6c0,7.3,2.7,13.6,8.2,18.6
	c5.4,5.1,12.1,7.6,20,7.6c7.3,0,13.5-2.6,18.8-7.8C64.2,538.8,66.8,532.7,66.8,525.5z"/>
<path class="st0" d="M88.6,491.9h9.2v27.3l28.5-27.3h12.8l-32.5,31.2l32.7,36.1h-11.7l-29.9-32.8v32.8h-9.2V491.9z"/>
<path class="st0" d="M173.3,489.3l31.8,69.9h-9.6l-7.8-17.2h-28.5l-7.7,17.2h-9.6L173.3,489.3z M173.3,510.3l-10.8,24h21.6
	L173.3,510.3z"/>
<path class="st0" d="M211.6,491.9H257l-32.1,58.2h31.5v9.1H210l31.9-58.1h-30.4V491.9z"/>
<path class="st0" d="M292.7,489.3l31.8,69.9h-9.6l-7.8-17.2h-28.5l-7.7,17.2h-9.6L292.7,489.3z M292.7,510.3l-10.8,24h21.6
	L292.7,510.3z"/>
<path class="st0" d="M332.9,491.9h9.2v27.3l28.5-27.3h12.8l-32.5,31.2l32.7,36.1H372l-29.9-32.8v32.8h-9.2V491.9z"/>
<path class="st0" d="M392.4,491.9h9.1v67.3h-9.1V491.9z"/>
<path class="st1" d="M417.6,491.9h9.1v58.2h21.9v9.1h-31V491.9z"/>
<path class="st1" d="M483,489.3l31.8,69.9h-9.6l-7.8-17.2h-28.5l-7.7,17.2h-9.6L483,489.3z M483,510.3l-10.8,24h21.6L483,510.3z"/>
<path class="st1" d="M524.5,491.9h10.7c7,0,12.7,1.5,17.2,4.6c4.4,3,6.7,6.9,6.7,11.5c0,5.7-3.3,10.4-9.8,14.2
	c10.1,3.4,15.2,9.2,15.2,17.6c0,5.8-2.6,10.5-7.8,14.1c-5.2,3.6-12.2,5.3-21,5.3h-11V491.9z M533.6,500v19.9c5.1-0.1,9-1,11.6-2.9
	c2.7-1.9,4-4.4,4-7.7c0-2.9-1.2-5.1-3.6-6.8c-2.4-1.7-5.7-2.6-9.8-2.6C535,499.9,534.3,499.9,533.6,500z M533.6,527.9v23h0.7
	c7.9,0,13.3-1.3,16.2-3.8c2.9-2.5,4.3-5.1,4.3-7.8c0-3.5-1.6-6.3-4.9-8.3c-3.2-2.1-7.7-3.1-13.3-3.1H533.6z"/>
<path class="st2" d="M310,155h-18.3v-23.7h18.5c1.8,0,3.3-1.5,3.3-3.3V102c0-1.8-1.5-3.3-3.3-3.3h-26.1c-1.8,0-3.3,1.5-3.3,3.3v20.9
	h-28.5c-2.4,0-4.4,2-4.4,4.4v34.9c0,2.4,2,4.4,4.4,4.4h25.9v20.1c0,1.9,1.6,3.5,3.5,3.5H310c2,0,3.5-1.6,3.5-3.5v-28.2
	C313.6,156.6,312,155,310,155z M251.5,91.3h17.3c1.2,0,2.2-1,2.2-2.2V71.8c0-1.2-1-2.2-2.2-2.2h-17.3c-1.2,0-2.2,1-2.2,2.2v17.3
	C249.4,90.3,250.3,91.3,251.5,91.3z M286.4,56.9h11.5c0.8,0,1.4-0.6,1.4-1.4V44c0-0.8-0.6-1.4-1.4-1.4h-11.5c-0.8,0-1.4,0.6-1.4,1.4
	v11.5C284.9,56.3,285.6,56.9,286.4,56.9z"/>
<path class="st3" d="M284.8,106.5v3.1h24.6v-3.1H284.8z M284.8,117.1h24.6V114h-24.6V117.1z M284.8,124.6h16.1v-3.1h-16.1V124.6z"/>
<path class="st3" d="M274.7,143.7c0-0.4-0.1-0.8-0.1-1.2c0-0.1,0-0.1,0-0.2c0-0.2-0.1-0.3-0.1-0.5l0,0l0,0c-0.1-0.3-0.2-0.7-0.3-1
	c-0.1-0.3-0.3-0.7-0.5-1.1c-0.2-0.4-0.6-0.9-0.8-1.2c-0.2-0.3-0.5-0.6-1-1.1c-0.2-0.2-0.6-0.5-0.8-0.7c-0.4-0.3-1.2-0.8-2.2-1.2
	c-0.8-0.3-1.7-0.5-2.5-0.6l0,0h0l0,0h0l0,0l-0.1,0l0,0c-0.1,0-0.3,0-0.6,0c-0.1,0-0.1,0-0.2,0c-0.2,0-0.4,0-0.7,0l0,0
	c-0.1,0-0.5,0-1.1,0.2c0,0,0,0,0,0c0,0-0.1,0-0.1,0c-0.1,0-0.2,0-0.3,0.1c-0.1,0-0.2,0.1-0.3,0.1c-0.4,0.1-0.7,0.2-0.9,0.3
	c-0.3,0.1-0.5,0.2-0.6,0.3c-0.2,0.1-0.3,0.1-0.5,0.3l-0.1,0.1l0,0c-0.1,0.1-0.3,0.2-0.4,0.3l0,0c-0.1,0.1-0.2,0.2-0.3,0.2l0,0
	c-0.2,0.1-0.3,0.2-0.4,0.3c-0.1,0.1-0.5,0.4-0.9,0.9c-0.2,0.2-0.4,0.4-0.5,0.6c-0.2,0.2-0.4,0.5-0.5,0.8c-0.1,0.1-0.1,0.2-0.2,0.3
	c-0.1,0.2-0.2,0.4-0.3,0.6l0,0.1c-0.1,0.2-0.2,0.4-0.2,0.5c0,0.1,0,0.1-0.1,0.2c-0.1,0.1-0.1,0.3-0.1,0.4c0,0.1-0.1,0.2-0.1,0.4
	c-0.1,0.4-0.2,1-0.3,1.4c-0.1,0.3-0.1,0.8,0,1.5c0,0.5,0.1,1,0.1,1.2c0,0.2,0.1,0.5,0.2,0.8c0,0.1,0.1,0.2,0.1,0.3
	c0,0.1,0.1,0.3,0.1,0.4c0.4,1.2,1.1,2.3,1.9,3.2c0.1,0.1,0.3,0.3,0.4,0.4c0.3,0.3,0.7,0.6,0.8,0.7c0.1,0.1,0.3,0.2,0.4,0.3l0,0
	c0,0,0.1,0.1,0.1,0.1c0.3,0.2,0.7,0.4,1,0.6c0.2,0.1,0.6,0.2,0.8,0.3c0.4,0.2,0.9,0.3,1.3,0.4c0.1,0,0.2,0,0.3,0.1
	c0.3,0,0.6,0.1,0.9,0.1c0.2,0,0.4,0,0.6,0c0.1,0,0.1,0,0.2,0c0.5,0,0.6,0,1-0.1c0.1,0,0.5-0.1,0.6-0.1l0,0l0,0
	c0.2,0,0.3-0.1,0.5-0.1c0.1,0,0.2,0,0.3-0.1c0.1,0,0.4-0.1,0.6-0.2c0.2-0.1,0.4-0.2,0.6-0.2c0.1-0.1,0.4-0.2,0.7-0.3l0,0l0,0
	c0.1,0,0.2-0.1,0.2-0.1c0.1-0.1,0.2-0.1,0.3-0.2c0.1-0.1,0.3-0.2,0.4-0.3c0.2-0.2,0.4-0.3,0.5-0.4l0,0c0.1-0.1,0.3-0.2,0.4-0.3
	c0.2-0.2,0.5-0.5,0.7-0.7c0.2-0.3,0.5-0.7,0.7-1c0.1-0.2,0.3-0.6,0.5-0.9c0.1-0.1,0.1-0.3,0.2-0.4l0-0.1l0-0.1
	c0-0.1,0.1-0.1,0.1-0.2c0.1-0.2,0.1-0.3,0.2-0.5c0-0.1,0.1-0.2,0.1-0.3c0.1-0.4,0.2-1,0.3-1.4C274.7,144.6,274.7,143.9,274.7,143.7z
	 M268.3,136.3c0.5,0.1,1.1,0.3,1.6,0.6l0,0c0,0,0.1,0,0.1,0.1l0,0h0l0,0l0,0l0,0c0,0,0,0,0.1,0l0,0l0,0c0.1,0,0.2,0.1,0.3,0.1
	c0,0,0.1,0,0.1,0.1l0.1,0l0,0c0,0,0.1,0.1,0.1,0.1c0,0,0.1,0.1,0.1,0.1l0,0l0,0l0.1,0c0,0,0,0,0.1,0c0.1,0,0.1,0.1,0.2,0.1l0,0l0,0
	l0,0l0,0c0.1,0.1,0.2,0.1,0.2,0.2l0,0l0,0l0,0l0,0c0,0,0,0.1,0.1,0.1c0.1,0.3,0,0.6-0.1,0.9c0,0,0,0,0,0l0,0l0,0c0,0,0,0,0,0.1
	c-0.9-1-2.1-1.8-3.3-2.4C268.3,136.7,268.3,136.5,268.3,136.3z M271.2,139.7c-0.2,0.3-0.5,0.6-0.9,0.8c-0.3,0.2-0.6,0.4-0.9,0.6
	c-0.7-1.1-1.6-2.2-2.5-3c0.1-0.1,0.3-0.2,0.4-0.3c0.2-0.2,0.4-0.3,0.5-0.5C269.1,137.9,270.3,138.7,271.2,139.7z M259.9,143.9
	c0.3,0,0.6,0,1,0c0.2,0,0.5,0,0.7,0c0.1,1.4,0.3,2.8,0.6,4.1c-0.3,0-0.6,0-0.8,0c-0.4,0-0.7,0-1.1,0c-0.4,0-0.9-0.1-1.2-0.2
	c-0.3-1.3-0.4-2.6-0.2-4C259.2,143.8,259.6,143.9,259.9,143.9z M259,143.3c0.3-1.3,0.8-2.6,1.4-3.8c0.2,0,0.4,0.1,0.6,0.1
	c0.2,0,0.4,0,0.6,0c0.1,0,0.2,0,0.3,0c-0.2,1.2-0.3,2.5-0.3,3.8c-0.2,0-0.5,0-0.7,0c-0.3,0-0.6,0-0.9,0
	C259.6,143.4,259.3,143.3,259,143.3z M265.5,142.8c-0.1,0-0.2,0.1-0.3,0.1c-1,0.3-2.1,0.5-3.1,0.5c0-1.3,0.1-2.7,0.3-3.8
	c0.6-0.1,1.2-0.2,1.8-0.3c0,0,0.1,0,0.1,0C264.7,140.3,265.1,141.5,265.5,142.8z M264.8,139.1c0.6-0.2,1.2-0.5,1.7-0.7
	c0.9,0.8,1.8,1.9,2.5,3c-0.9,0.5-1.9,0.9-3,1.3C265.6,141.4,265.2,140.1,264.8,139.1z M262.1,143.9c1-0.1,2.1-0.3,3.2-0.6
	c0.1,0,0.2-0.1,0.3-0.1c0.3,1.1,0.7,2.2,1,3.3c0.1,0.2,0.1,0.4,0.2,0.7c-0.1,0-0.3,0.1-0.4,0.1c-1.2,0.3-2.5,0.5-3.6,0.6
	C262.4,146.7,262.2,145.3,262.1,143.9z M266.5,147.8c0.1,0,0.3-0.1,0.4-0.1c0.3,1.2,0.6,2.3,0.7,3.1c-0.1,0-0.2,0.1-0.3,0.1
	c-1.1,0.3-2.1,0.5-3.2,0.6c-0.5-0.8-0.9-1.8-1.3-3C264,148.4,265.2,148.2,266.5,147.8z M266.1,143.1c1.2-0.4,2.2-0.8,3.2-1.3
	c0.7,1.2,1.3,2.5,1.6,3.8c-1.1,0.6-2.3,1.1-3.7,1.5C266.9,145.8,266.5,144.5,266.1,143.1z M266.1,136c0.6,0,1.2,0.1,1.7,0.2
	c0,0.1,0,0.3-0.1,0.5c-0.7-0.3-1.4-0.5-2.2-0.6C265.7,136,265.9,136,266.1,136z M267.4,137.1c-0.1,0.1-0.2,0.2-0.4,0.3
	c-0.1,0.1-0.3,0.2-0.5,0.3c-0.6-0.5-1.2-1-1.9-1.3C265.6,136.5,266.5,136.7,267.4,137.1z M266.1,138c-0.4,0.2-1,0.4-1.5,0.6
	c-0.3-0.8-0.6-1.5-0.8-2C264.6,136.9,265.4,137.4,266.1,138z M263.3,136.7c0.2,0.5,0.5,1.2,0.8,2.1c0,0,0,0-0.1,0
	c-0.5,0.1-1.1,0.2-1.6,0.3C262.7,138.1,263,137.3,263.3,136.7z M262.6,137c-0.3,0.6-0.5,1.3-0.7,2.1c-0.1,0-0.3,0-0.4,0
	c-0.2,0-0.4,0-0.5,0c-0.1,0-0.2,0-0.3,0C261.3,138.3,261.9,137.6,262.6,137z M261.5,137.2c0.1,0,0.1-0.1,0.2-0.1
	c-0.6,0.5-1.1,1.1-1.5,1.8c-0.3-0.1-0.4-0.2-0.6-0.3C260.2,138.1,260.9,137.6,261.5,137.2z M259.7,137.8c0.3-0.3,0.7-0.5,1.1-0.7
	c-0.4,0.3-0.8,0.6-1.2,0.9c0,0,0,0,0,0C259.6,138,259.6,137.9,259.7,137.8z M257.9,139.8c0-0.1,0.1-0.2,0.1-0.2l0,0
	c0.1-0.2,0.3-0.4,0.4-0.5c0-0.1,0.1-0.1,0.1-0.2l0,0l0,0l0,0l0,0l0,0c0.1-0.2,0.3-0.3,0.5-0.5c0,0.1,0,0.1,0,0.2c0,0,0,0,0,0
	c0,0,0,0,0,0l0,0C258.6,139,258.3,139.4,257.9,139.8c0,0.1-0.1,0.2-0.1,0.3l0,0c0,0.1-0.1,0.1-0.1,0.2
	C257.7,140.2,257.8,140,257.9,139.8z M259.3,139c0.2,0.2,0.4,0.3,0.6,0.4c-0.7,1.1-1.2,2.4-1.4,3.8c-0.6-0.2-1-0.5-1.2-0.8
	C257.7,141.1,258.4,139.9,259.3,139z M257.1,146.6c0-0.1,0-0.2-0.1-0.3c0-0.1,0-0.2-0.1-0.3v0c0,0,0,0,0,0c0-0.1,0-0.1,0-0.2l0,0
	l0,0c-0.1-1-0.1-1.9,0.1-2.9c0.3,0.3,0.8,0.6,1.3,0.7c-0.2,1.4-0.2,2.7,0.1,4C257.8,147.4,257.3,147.1,257.1,146.6z M259.5,150.6
	L259.5,150.6L259.5,150.6L259.5,150.6c-0.1-0.1-0.2-0.2-0.3-0.3l0,0l0,0c0,0-0.1-0.1-0.1-0.1c-0.2-0.2-0.4-0.5-0.5-0.6l-0.1-0.1
	c-0.1-0.1-0.2-0.3-0.3-0.4c0-0.1-0.1-0.1-0.1-0.2l0,0l0-0.1c-0.1-0.1-0.2-0.3-0.3-0.5c-0.1-0.1-0.1-0.2-0.2-0.4c0-0.1,0-0.1-0.1-0.2
	c0,0,0.1,0.1,0.1,0.1l0,0l0,0c0.1,0,0.1,0.1,0.2,0.1l0,0l0,0c0.1,0,0.1,0.1,0.2,0.1l0,0l0,0c0.1,0,0.1,0,0.2,0.1l0,0l0,0
	c0.1,0,0.1,0,0.2,0.1l0,0l0,0c0,0,0,0,0,0c0.3,1,0.7,1.9,1.3,2.7C259.8,150.8,259.7,150.7,259.5,150.6z M261,151.3
	c-0.8-0.8-1.4-1.8-1.7-2.9l0,0l0.1,0l0.1,0l0,0l0,0c0,0,0.1,0,0.1,0c0,0,0.1,0,0.1,0l0,0h0l0,0l0,0l0,0c0.1,0,0.2,0,0.3,0
	c0.4,0,0.7,0,1.1,0c0.3,0,0.6,0,1,0c0.3,1.2,0.7,2.2,1.2,3c-0.2,0-0.4,0-0.5,0c-0.3,0-0.6,0-0.9,0
	C261.7,151.4,261.3,151.4,261,151.3z M264.1,152.8c-0.2,0-0.4-0.1-0.6-0.1l-0.1,0l0,0c-0.2,0-0.4-0.1-0.5-0.1
	c-0.1,0-0.1-0.1-0.2-0.1c-0.3-0.1-0.6-0.3-0.9-0.5c0.1,0,0.2,0,0.3,0c0.3,0,0.6,0,1,0c0.3,0,0.6,0,0.9,0c0.1,0.1,0.1,0.2,0.2,0.3
	c0.2,0.2,0.4,0.4,0.6,0.6C264.5,152.8,264.3,152.8,264.1,152.8z M267.7,152.6c-0.2,0-0.3,0.1-0.5,0.1c-0.1,0-0.5,0.1-0.6,0.1l-0.1,0
	c-0.1,0-0.2,0-0.3,0l0,0l0,0l0,0c0,0-0.1,0-0.1,0c-0.5,0-1-0.3-1.6-0.9c1-0.1,1.9-0.3,3-0.5c0.1,0,0.2-0.1,0.3-0.1c0,0,0,0,0,0
	c0.1,0.4,0.1,0.8,0.1,1c0,0.1,0,0.1,0,0.2C267.8,152.6,267.8,152.6,267.7,152.6z M270,151.6C269.9,151.7,269.9,151.7,270,151.6
	l-0.1,0.1l0,0l0,0c0,0,0,0,0,0l0,0l0,0c-0.3,0.1-0.5,0.3-0.6,0.3c-0.1,0.1-0.4,0.2-0.5,0.2c-0.1,0-0.1,0-0.2,0.1
	c0-0.2,0-0.6-0.2-1.2c1-0.3,2-0.7,2.9-1.2C270.9,150.7,270.5,151.3,270,151.6z M271.3,149.3c-0.9,0.5-2,1-3.2,1.3
	c-0.2-0.8-0.4-1.9-0.7-3.1c1.3-0.4,2.6-0.9,3.7-1.5C271.3,147.2,271.4,148.4,271.3,149.3z M269.7,141.5c0.3-0.2,0.7-0.4,0.9-0.6
	c0.4-0.3,0.7-0.6,0.9-0.9c0.9,1,1.6,2.2,1.9,3.5c-0.3,0.4-0.6,0.7-1.1,1.1c-0.3,0.2-0.6,0.5-1,0.7C271,144,270.4,142.7,269.7,141.5z
	 M272.4,149.5c0,0.1-0.1,0.1-0.1,0.2c-0.2,0.2-0.5,0.5-0.7,0.7c0,0-0.1,0.1-0.1,0.1c0.1-0.1,0.1-0.3,0.1-0.4c0-0.1,0.1-0.3,0.1-0.5
	c0.4-0.2,0.8-0.5,1.1-0.7c0,0,0,0,0.1,0C272.7,149.1,272.5,149.3,272.4,149.5z M273.4,147.6c-0.2,0.3-0.6,0.6-1,0.9
	c-0.2,0.2-0.4,0.3-0.7,0.5c0.1-1,0-2-0.3-3.2c0.4-0.3,0.8-0.5,1.2-0.8c0.4-0.3,0.7-0.6,0.9-0.9C273.8,145.3,273.8,146.5,273.4,147.6
	z M273.8,143c-0.3-0.8-0.6-1.5-1.1-2.2c-0.3-0.4-0.6-0.8-0.9-1.1c0,0,0.1-0.1,0.1-0.1l0,0l0,0c0,0,0,0,0-0.1l0,0c0,0,0,0,0-0.1
	c0.1-0.2,0.2-0.5,0.2-0.7c0.1,0.1,0.1,0.1,0.2,0.2c0.4,0.5,0.8,1.1,1.1,1.7c0.2,0.4,0.3,0.8,0.4,1.2l0,0l0,0c0,0,0,0.1,0,0.1
	C274,142.2,274,142.6,273.8,143z M274.2,144.9c0-0.4-0.1-0.9-0.2-1.3c0.1-0.1,0.2-0.2,0.2-0.4c0,0.2,0,0.3,0,0.4
	C274.2,143.9,274.2,144.4,274.2,144.9z M278.4,144.2c0-7-5.7-12.7-12.7-12.7c-7,0-12.7,5.7-12.7,12.7c0,4,1.9,7.8,5.1,10.2l-0.3,2.1
	l-0.1,0.9l-0.1,0.9l0.8-0.4l0.8-0.3l2.8-1.2c1.2,0.4,2.5,0.6,3.8,0.6C272.7,156.9,278.4,151.2,278.4,144.2z M265.7,155.4
	c-1.2,0-2.5-0.2-3.6-0.6l-0.2-0.1l-0.2,0.1l-2.3,1l0.3-1.8l0.1-0.3l-0.3-0.2c-3.1-2.1-5-5.6-5-9.3c0-6.2,5-11.2,11.2-11.2
	c6.2,0,11.2,5,11.2,11.2C276.9,150.4,271.9,155.4,265.7,155.4z M286.7,147c0-6.1-4.3-11.2-10.1-12.4c2.3,2.6,3.6,5.9,3.6,9.6
	c0,7.1-5.1,13-11.8,14.3c1.7,0.8,3.6,1.3,5.5,1.3c1.3,0,2.5-0.2,3.8-0.6l2.8,1.2l0.8,0.4l0.8,0.3l-0.1-0.9l-0.1-0.9l-0.3-2.1
	C284.8,154.8,286.7,151,286.7,147z"/>
<path class="st2" d="M377.6,155.6h-58.5v10h58.5c31.1,0,56.4,25.2,56.4,56.4V391c0,31.1-25.2,56.4-56.4,56.4H208.6
	c-31.1,0-56.4-25.2-56.4-56.4V221.9c0-31.1,25.2-56.4,56.4-56.4h31.7v-10h-31.7c-36.6,0-66.4,29.8-66.4,66.4V391
	c0,36.6,29.8,66.4,66.4,66.4h169.1c36.6,0,66.4-29.8,66.4-66.4V221.9C444,185.3,414.2,155.6,377.6,155.6z"/>
<path class="st4" d="M257,265.9C257,265.9,257,265.9,257,265.9C257,265.9,257,265.9,257,265.9L257,265.9z"/>
<path class="st4" d="M236.7,358.5c3.5,0,6.3-2.8,6.3-6.3c0-3.5-2.8-6.3-6.3-6.3c-2.5,0-4.6,1.5-5.7,3.6h-22.4H204v4.7V380h-6.9v4.7
	h11.5v-30.5h22.1C231.6,356.7,233.9,358.5,236.7,358.5z M228.3,325.9c3.5,0,6.3-2.8,6.3-6.3c0-3.5-2.8-6.3-6.3-6.3
	c-2.7,0-5,1.7-5.9,4.1h-47.9v4.7h48C223.5,324.3,225.7,325.9,228.3,325.9z M218.1,260.1c3.5,0,6.3-2.8,6.3-6.3
	c0-3.5-2.8-6.3-6.3-6.3c-2.4,0-4.4,1.3-5.5,3.2h-24.5v4.7H212C212.7,258.1,215.2,260.1,218.1,260.1z M363.7,311.7
	c-1-2.1-3.2-3.6-5.7-3.6c-3.5,0-6.3,2.8-6.3,6.3c0,3.5,2.8,6.3,6.3,6.3c2.8,0,5.1-1.8,6-4.3h47.6v-4.7H363.7z M378.5,368.9h-18.6
	c-0.7-2.7-3.2-4.6-6.1-4.6c-3.5,0-6.3,2.8-6.3,6.3c0,3.5,2.8,6.3,6.3,6.3c2.4,0,4.4-1.3,5.5-3.3h23.8v-19.8h-4.7V368.9z M367.2,237
	c-3.5,0-6.3,2.8-6.3,6.3c0,3.5,2.8,6.3,6.3,6.3c2,0,3.9-1,5-2.5h24.9v-4.7h-23.7C373,239.4,370.4,237,367.2,237z M399.3,333.3
	c-2.9,0-5.3,1.9-6,4.5h-66.8c7-14.7,15.5-29,27.9-46c0.1-5.5-2.8-17.8-6.4-31.7h29.3V286v4.7h4.7h13.4c0.9,2.4,3.2,4.2,5.9,4.2
	c3.5,0,6.3-2.8,6.3-6.3c0-3.5-2.8-6.3-6.3-6.3c-2.6,0-4.8,1.5-5.8,3.8h-13.5v-30.5h-35.1c-2.5-9.8-5.1-20.1-7-29.4h27.9
	c1,2.2,3.2,3.8,5.8,3.8c3.5,0,6.3-2.8,6.3-6.3c0-3.5-2.8-6.3-6.3-6.3c-2.7,0-5,1.7-5.9,4.2h-28.7c-2-10.7-2.7-19.4-0.8-23.4h-43.7
	h-0.4h-43.7c2.1,4.5,0.9,15-1.6,27.5h-30.3c-0.8-2.5-3.2-4.4-6-4.4c-3.5,0-6.3,2.8-6.3,6.3c0,3.5,2.8,6.3,6.3,6.3
	c2.5,0,4.6-1.5,5.7-3.6h29.6c-5.2,23.6-13.9,52.3-13.7,61.7c2.4,3.3,4.6,6.5,6.8,9.6h-29v-25.9v-4.7h-4.7h-11.9
	c-0.8-2.6-3.2-4.6-6-4.6c-3.5,0-6.3,2.8-6.3,6.3c0,3.5,2.8,6.3,6.3,6.3c2.4,0,4.5-1.4,5.6-3.4h12.4v30.5h36.8
	c6.4,9.8,11.6,18.9,16.2,28h-71.1c-0.8-2.6-3.2-4.6-6-4.6c-3.5,0-6.3,2.8-6.3,6.3c0,3.5,2.8,6.3,6.3,6.3c2.4,0,4.5-1.4,5.6-3.4h73.9
	c2.8,6,5.4,12.1,7.9,18.4h-18.1h-4.7v4.7v25.9h-24.5c-1-2.1-3.2-3.6-5.7-3.6c-3.5,0-6.3,2.8-6.3,6.3c0,3.5,2.8,6.3,6.3,6.3
	c2.8,0,5.1-1.8,6-4.3h28.9v-30.5H272c3,7.9,6,16.2,9.1,25.4h-19.5v23.5c-2.1,1-3.5,3.2-3.5,5.6c0,3.5,2.8,6.3,6.3,6.3
	c3.5,0,6.3-2.8,6.3-6.3c0-2.8-1.9-5.2-4.4-6v-18.5h16.4c1,3.1,2.1,6.2,3.2,9.5h3.8V299.7c-9.3-2.2-16.2-10.6-16.2-20.6
	c0-11.7,9.5-21.2,21.2-21.2c11.7,0,21.2,9.5,21.2,21.2c0,10.4-7.5,19-17.4,20.8v101.4h3.8c1.3-3.8,2.5-7.4,3.7-11h17.7v22.5
	c-2.3,1-3.9,3.2-3.9,5.8c0,3.5,2.8,6.3,6.3,6.3c3.5,0,6.3-2.8,6.3-6.3c0-2.7-1.7-5-4.1-5.9v-27.1h-20.8c2.7-7.7,5.2-14.8,7.7-21.6
	h24.2V390v4.7h4.7h21.6c1,2.2,3.2,3.6,5.7,3.6c3.5,0,6.3-2.8,6.3-6.3c0-3.5-2.8-6.3-6.3-6.3c-2.8,0-5.1,1.8-5.9,4.3h-21.4v-30.5
	h-27.1c2.3-5.8,4.6-11.5,7.1-17h69.4c1.1,2,3.1,3.4,5.6,3.4c3.5,0,6.3-2.8,6.3-6.3C405.6,336.1,402.7,333.3,399.3,333.3z"/>
<path class="st5" d="M309,273.2C309,273.2,309,273.2,309,273.2l0,0.7v6.1h3.6C312.5,277,311.4,274.2,309,273.2z M307.8,273.9h-2.9
	c-0.3,0.5-0.7,0.8-1.3,0.8c-0.8,0-1.5-0.7-1.5-1.5c0-0.8,0.7-1.5,1.5-1.5c0.7,0,1.2,0.5,1.4,1.1h2.8h0.9c-2-3.5-5.4-6.8-10.2-6.6
	c-0.1-0.3-0.8-0.6-1.7-0.9v7.6h-7.2v2.9c0.5,0.3,0.8,0.7,0.8,1.3c0,0.8-0.7,1.5-1.5,1.5c-0.8,0-1.5-0.7-1.5-1.5
	c0-0.7,0.5-1.2,1.1-1.4V273v-1.1h1.1h6.1v-6.7c-2.9-0.4-7.4,0-9.5,2.5h0v2.9c0.5,0.3,0.8,0.7,0.8,1.3c0,0.8-0.7,1.5-1.5,1.5
	c-0.8,0-1.5-0.7-1.5-1.5c0-0.7,0.5-1.3,1.1-1.4v-2.7c-7.9,0.8-11.2,12.6-4.4,16.1h4.3c0.3-0.5,0.7-0.8,1.3-0.8
	c0.8,0,1.5,0.7,1.5,1.5c0,0.8-0.7,1.5-1.5,1.5c-0.7,0-1.3-0.5-1.4-1.1h-0.9c1,2.5,4.8,3.9,7.8,2.7v-3.3c-0.5-0.3-0.8-0.7-0.8-1.3
	c0-0.8,0.7-1.5,1.5-1.5c0.8,0,1.5,0.7,1.5,1.5c0,0.7-0.5,1.3-1.1,1.4v2.9c1.8,1.3,6.5,6.8,7.3,7.4c1-0.1,0.4-1.8,0.6-2.8
	c2.7-0.9,6.8,0.3,7.5-3.6h-5.9v-7.2h-2.9c-0.2,0.5-0.7,0.8-1.3,0.8c-0.8,0-1.5-0.7-1.5-1.5c0-0.8,0.7-1.5,1.5-1.5
	c0.7,0,1.2,0.5,1.4,1.1h2.8h1.1v1.1v6.1h7c0,0,0.1,0,0.1,0c1.1-1.5,1.8-3.8,1.9-6h-4.7V273.9z"/>
</svg>
