<?xml version="1.0" encoding="UTF-8"?><svg xmlns="http://www.w3.org/2000/svg" viewBox="0 0 785.61 141.09"><defs><style>.d{fill:none;}.e{fill:#00abeb;}.f{fill:#005ead;}</style></defs><g id="a"/><g id="b"><g id="c"><g><g><path d="M446.31,52.02c-.65-1.92-1.64-4.99-2.01-6.13l-.11-.34c-.37-1.07-1.21-1.57-2.24-1.57h-6.89c-.9,0-1.18,.48-1.23,.54-.25,.36-.33,.77-.17,1.27,.17,.53,1.57,4.7,2.33,6.82,.25,.7,.89,1.55,2.53,1.55h6.14c.98-.01,1.36-.31,1.56-.59,.25-.34,.33-.85,.08-1.55"/><path d="M430.63,45.5c-.31-.95-1.14-1.5-2.22-1.5h-6.89c-.78,.01-1.07,.32-1.22,.53-.26,.35-.32,.81-.17,1.29,.18,.56,1.57,4.73,2.33,6.82,.26,.73,.9,1.54,2.53,1.54h6.18c.89-.01,1.33-.3,1.53-.58,.28-.38,.34-.86,.11-1.56-.76-2.27-2.05-6.14-2.18-6.55"/><path class="e" d="M166.88,100.14c0,4.61-3.72,8.35-8.33,8.36-4.61,0-8.35-3.72-8.36-8.33,0-4.61,3.72-8.35,8.32-8.36,4.61,0,8.35,3.72,8.36,8.33"/><path class="e" d="M171.85,40.88c1.43-3.38-.17-7.08-3.64-8.35-3.45-1.26-6.83,.66-8.61,3.82-2.87,5.11-17.75,33.32-20.25,38-2.5,4.68-5.64,11.36-8.25,10.35-2.4-.93-5.23-11.18-6.44-14.11-2.14-5.2-6.49-11.38-13.76-9.81-5.55,1.2-8.71,5.56-13.73,15.2-2.76,5.29-4.48,8.78-6.99,12.21-5.15,7.04-8.06-4.52-9.77-10.5-2.29-8.02-6.46-19.37-15.56-19.36-5.08,0-10.5,2.99-17.24,13.91-3.93,6.37-13.14,24.2-14.49,27.38-1.45,3.38-.2,7.05,3.18,8.49,3.38,1.44,6.7-.06,8.68-3.15,6.47-10.05,8.24-13.97,11.55-18.6,3.54-4.91,8.36-9.32,12.04,2.49,2.32,7.43,6.38,19.62,17.29,19.7,6.57,.04,13.36-5.63,16.54-11.03,3.59-6.11,4.49-9.38,7.24-12.33,1.4-1.5,3.48-2.05,5.45,2.32,1.9,4.22,5.84,17.56,12.84,20.47,9.89,4.1,19.19-15.9,22.4-22.27,2.59-5.14,20.38-42.12,21.52-44.82"/><path d="M252.23,46.54c-.5-.5-1.24-.74-2.17-.74h.05c-2.93,0-60.12,.09-60.12,.09-.53,0-1.1,.18-1.57,.71-.31,.31-.52,.91-.52,1.44v7.61c0,1.08,.94,2.03,2.09,2.03h.34s41.92-.07,43.82-.07h1.78c1.28,0,1.63,.23,1.93,.62,.66,.87-.02,2.25-.12,2.58-2.89,10.47-9.23,18.56-18.34,23.41l-.51,.27-.34-.47c-2.24-3.07-3.92-5.19-5.86-7.64l-.28-.36c-.86-1.13-1.95-1.64-2.7-1.64h0l-10.15,.02c-.57,0-1.12,.22-1.4,.88-.17,.43-.21,1.03,.16,1.59,8.73,11.34,14.67,20.63,20,30.29,.43,.78,1.2,1.35,2.27,1.35h11c.56,0,.95-.29,1.23-.8,.16-.31,.35-.87,0-1.49-1.63-3.09-2.75-5.18-6.22-10.29l-.37-.55,.54-.38c12.86-9.05,24.89-20.57,26.02-46.63,.03-.67-.08-1.3-.56-1.83"/><path d="M314.04,45.66c-.52-.6-1.08-.68-1.63-.7-1.15,.01-6.63,.04-9.97,.06-1.08,0-2.08,.87-2.38,1.58-5.7,13.07-22.26,22.93-45.01,26.74-1.47,.29-2.18,1.16-2.2,2.14l.02,7.87c-.01,.68,.3,1.18,.66,1.51,.66,.55,1.31,.62,1.84,.56,11-1.35,19.48-3.53,26.16-6.61l.95-.44,.04,27.93c0,1.12,.88,2.09,2.16,2.09h8.59c1.12-.01,1.98-1.06,1.98-1.96l-.06-34.06,.29-.2c8.6-5.87,16.08-15.47,18.92-24.85,.17-.71-.09-1.33-.36-1.66"/><path d="M360.05,72.87l.03-.63,19.21-.06c.46,0,1.03-.18,1.47-.63,.33-.32,.6-.94,.6-1.41v-7.57c-.02-.64-.24-1.09-.55-1.43-.47-.51-1.03-.68-1.56-.68h-19.08l-.02-13.49c0-.93-.68-2.1-2.18-2.1h-.3l-8.18,.02c-.6,0-1.12,.24-1.52,.66-.31,.31-.56,.85-.56,1.42l.02,13.53-28.82,.04c-.46,0-1.05,.1-1.58,.64-.32,.32-.59,.86-.59,1.52v7.61c.01,.93,.78,2.02,2.15,2.02h.28l28.47-.06-.05,.71c-1.01,16.49-8.91,21.19-23.77,24.24-1.3,.31-2.03,.94-2.03,2.07v7.83c.02,.59,.26,1.08,.67,1.41,.4,.33,1.04,.57,1.57,.5,24.89-3.45,35.04-13.87,36.3-36.16"/><path d="M445.31,60.94c-.33-.32-.86-.56-1.36-.56h-.35l-41.69,.07-.03-13.5c0-.69-.28-1.19-.59-1.51-.44-.46-1.04-.64-1.61-.64h-8.03c-1.05,.01-2.07,.85-2.07,2.11l.08,45.25c0,11.26,4.45,16,16.81,15.99h.99l37.58-.08c1.07,0,1.94-1.06,1.94-2.03l-.02-7.69c0-1.04-.81-2.1-2.07-2.1h0l-34.33,.04h-.05c-3.12,0-5.42-.2-6.75-1.29-1.67-1.4-1.83-3.41-1.8-6.56l-.03-16.27,41.92-.07c1.25,0,2.1-.99,2.1-2.11v-7.55c-.01-.77-.36-1.21-.65-1.5"/></g><rect class="d" x="322.26" y="-322.26" width="141.09" height="785.61" transform="translate(463.35 -322.26) rotate(90)"/><g><path class="f" d="M475.08,86.87c-2.47-1.32-3.29-1.59-10.59-4.44-1.59-.6-3.13-1.32-3.13-3.34,0-1.1,.6-3.62,3.18-3.62,1.97,0,7.9,2.19,10.92,3.51,4.28,1.81,5.93,2.58,5.93,4.99,0,1.65-1.1,3.89-3.29,3.89-.71,0-1.59-.27-3.02-.99Zm32.53-13.01c0,1.81-4.49,15.31-14.86,23.65-10.37,8.4-23.09,9.88-24.85,9.88-3.79,0-3.79-3.73-3.79-4,0-2.91,2.52-3.35,4.06-3.57,4.33-.71,13.22-2.09,20.9-8.62,5.87-5.05,9.1-12.62,9.65-14.05,2.08-5.21,2.19-5.37,2.85-5.98,.38-.38,.93-.66,1.97-.66,.71,0,4.06,.49,4.06,3.34Zm-27.92-1.25c-2.63-1.37-3.4-1.64-10.59-4.39-1.48-.55-3.13-1.32-3.13-3.35,0-1.04,.55-3.68,3.18-3.68,2.03,0,8.01,2.3,10.92,3.51,4.39,1.86,5.92,2.63,5.92,5.05,0,1.7-1.15,3.89-3.29,3.9-.71,0-1.59-.33-3.02-1.04Zm17.72-11.3c-.11-.33-.22-.77-.22-1.15,0-1.26,1.37-1.59,1.97-1.59,1.1,0,1.54,.82,2.3,2.74,.6,1.43,1.32,3.73,1.32,4.44,0,1.76-1.81,1.76-1.97,1.76-.71,0-1.32-.33-1.59-1.1-.17-.44-.77-2.36-.93-2.8-.17-.38-.77-2.03-.88-2.3Zm6.42-.66c-.06-.22-.11-.6-.11-.88,0-1.1,.99-1.65,1.97-1.65,1.15,0,1.48,.77,2.25,2.58,.71,1.59,1.43,3.67,1.43,4.55,0,1.59-1.65,1.81-1.97,1.81-.88,0-1.37-.49-1.65-1.15-.16-.44-.77-2.36-.93-2.74-.16-.44-.82-2.14-.99-2.52Z"/><path class="f" d="M517.48,91.68c-1.04,0-3.24-.27-3.24-3.13,0-2.8,2.03-3.13,3.24-3.13h23.37v-5.93c0-1.26-.61-1.87-1.87-1.87h-21.94c-1.1,0-3.29-.27-3.29-3.17,0-2.63,1.7-3.24,3.29-3.24h24.25c5.21,0,6.36,2.62,6.37,6.35v22.66c0,5.1-2.46,6.36-6.36,6.37h-24.68c-2.74,0-3.35-1.75-3.35-3.23,0-1.98,1.1-3.29,3.35-3.29h22.38c1.32,0,1.87-.66,1.87-1.87v-6.53h-23.37Z"/><path class="f" d="M555,72.64c-.88,0-3.68,0-3.68-3.56,0-3.35,2.3-3.62,3.67-3.62h31.87c.93,0,2.91,.16,4,.54-.38-.38-.38-.6-1.1-2.69-.27-.82-.49-1.32-.99-2.58-.28-.66-.39-.99-.39-1.43,0-1.32,1.48-1.59,2.03-1.59,1.15,0,1.54,.99,2.3,2.8,.66,1.59,1.21,3.4,1.21,4.06,0,1.21-.82,1.81-2.19,1.76,3.07,1.7,3.24,4.33,3.24,5.87,0,3.89-2.41,14.81-9.65,23.21-8.61,9.88-22.1,12.79-24.41,12.79-3.24,0-3.68-3.29-3.68-4.06,0-2.3,1.87-2.8,4.17-3.4,3.79-.99,11.41-2.96,17.99-9.82,3.89-4,6.25-9.22,7.29-14.76,.11-.66,.27-1.48,.27-2.08,0-1.43-1.04-1.43-1.81-1.43h-30.17Zm40.1-12.67c-.05-.11-.16-.71-.16-.88,0-.93,.88-1.65,2.03-1.65,1.15,0,1.48,.77,2.25,2.63,.22,.49,1.37,3.35,1.37,4.5,0,1.65-1.64,1.81-1.97,1.81-1.1,0-1.48-.88-1.59-1.15-.16-.44-.82-2.36-.93-2.74-.16-.44-.82-2.08-.99-2.52Z"/><path class="f" d="M634.42,63.95c0-1.59,.49-3.46,3.62-3.46,2.36,0,3.68,.93,3.68,3.45v6.8h5.76c.71,0,3.62,0,3.62,3.4,0,2.58-1.59,3.46-3.62,3.46h-5.76v6.42c0,7.79-1.59,16.02-12.17,20.96-5.49,2.58-10.92,3.4-12.62,3.4-3.57,0-3.79-3.4-3.79-4,0-2.52,1.54-2.8,5.65-3.4,6.2-.93,12.12-3.84,14.26-8.67,1.37-3.02,1.37-7.79,1.37-8.45v-6.25h-16.79v10.87c0,2.36-1.15,3.4-3.56,3.4-1.87,0-3.62-.55-3.62-3.4v-10.86h-5.65c-.71,0-3.62,0-3.62-3.4,0-2.63,1.7-3.46,3.62-3.46h5.65v-6.69c0-1.43,.38-3.4,3.56-3.4,2.41,0,3.62,.99,3.62,3.4v6.69h16.79v-6.81Z"/><path class="f" d="M657.3,88.25c-1.21,0-4.06,0-4.06-3.73,0-3.57,2.47-3.79,4.06-3.79h40.81c1.15,0,4.06-.01,4.06,3.72,0,3.67-2.58,3.79-4.06,3.79h-40.81Z"/><path class="f" d="M737.33,78.85h14.81c.82,0,3.4,0,3.4,3.34,0,3.4-2.52,3.4-3.4,3.4h-14.92c-.6,9.93-4.71,15.58-11.41,19.15-4.5,2.42-9.27,3.51-11.03,3.51-3.73,0-3.73-3.78-3.73-4.06,0-2.08,1.7-2.58,3.35-2.96,12.29-2.96,14.97-7.9,15.52-15.64h-18.87c-.82,0-3.4,0-3.4-3.34,0-3.4,2.47-3.4,3.4-3.4h18.98v-7.79c-4.39,.49-10.97,1.1-15.25,1.1-1.15,0-4,0-4-3.51,0-2.96,2.52-3.07,4.33-3.07,2.25-.06,15.85-.77,25.12-2.97,.82-.22,4.33-1.1,5.05-1.26,.77-.16,1.15-.22,1.59-.22,2.58,0,3.29,2.41,3.29,3.78,0,2.08-1.21,2.63-2.8,3.13-2.47,.77-8.06,1.76-10.04,2.03v8.78Z"/></g></g></g></g></svg>